# xmcd
#
# Track frame offsets:
#	150
#	17700
#	33268
#	52956
#	66546
#	83969
#	104284
#	117441
#	135915
#	155372
#	173491
#	194346
#	212144
#	232573
#	249413
#	269851
#
# Disc length: 3777 seconds
#
# Revision: 0
# Processed by: cddbd v1.4PL0 Copyright (c) Steve Scherf et al.
# Submitted via: dBpowerAMP V4.0
#
DISCID=d40ebf10
DTITLE=Juri Homenja - Zabõtõi gorod
DYEAR=2002
DGENRE=Pop
TTITLE0=Zabõtõi gorod
TTITLE1=Ja vkljutsjaju mir
TTITLE2=Prosto tsjuzoi
TTITLE3=Serija
TTITLE4=Slomannõi mir
TTITLE5=Võtserkni lisnee
TTITLE6=Pervõi porõv
TTITLE7=Zizn dlinnee razluki
TTITLE8=Poslednij noktjurn
TTITLE9=Za steklom
TTITLE10=Zvjozdõ v moih glazah
TTITLE11=Dnevnik
TTITLE12=Za steklom (dance mix)
TTITLE13=Dnevnik (dance mix)
TTITLE14=Storia
TTITLE15=Call me
EXTD=
EXTT0=
EXTT1=
EXTT2=
EXTT3=
EXTT4=
EXTT5=
EXTT6=
EXTT7=
EXTT8=
EXTT9=
EXTT10=
EXTT11=
EXTT12=
EXTT13=
EXTT14=
EXTT15=
PLAYORDER=
